<svg id="Capa_1" enable-background="new 0 0 512.203 512.203" height="512" viewBox="0 0 512.203 512.203" width="512" xmlns="http://www.w3.org/2000/svg"><g><path d="m324.346 86.415c-20.362-45.313-58.689-78.645-108.74-85.202-25.676-3.363-53.973.277-84.107 10.822-6.323 2.213-10.413 8.351-10.021 15.039.394 6.688 5.175 12.304 11.714 13.761 52.239 11.634 60.042 44.694 68.111 59.362 2.652 4.88 7.742 7.838 13.175 7.838 3.888 0 44.701-8.707 93.759-.668 11.758 1.922 21.016-10.03 16.109-20.952z" fill="#6aa6fb"/><path d="m185.213 489.743c-18.32 21.57-44.71 22.46-48.91 22.46-2.942 0-5.581-.775-7.85-2.14-3.43-2.05-71.88-43.8-107.13-112.64-6.63-12.95-12.09-26.86-15.72-41.64v-.01c-.01-.03-.01-.05-.02-.08-.92-3.83-.27-7.71 1.57-10.92 5.699-10.086 20.581-10.174 26.23.32 19.624 36.467 49.072 57.571 89.24 59.08 30.36 1.14 55.25-9.59 55.5-9.69 8.851-3.884 18.978 1.5 20.78 10.89 7.1 36.91 2.5 65.3-13.69 84.37z" fill="#4880fa"/><path d="m503.513 317.793c-52.72 24.61-124.98 28.01-214.77 10.12-65.09-12.97-114.87-32.48-118.03-33.74-37.18-14.27-71.14-8.32-100.94 17.69-23.59 20.58-35.89 46.43-36.01 46.69-2.67 5.685-8.654 9.201-15.07 8.56-6.32-.63-11.57-5.16-13.09-11.34-19.682-80.193 11.222-175.02 116.89-244.76 12.33-8.15 23.32-14.02 34.58-18.48 15.08-5.96 34.63-11.05 55.04-14.31 80.253-12.905 164.694 1.933 223.55 59.43 44.523 43.492 66.686 103.227 76.33 164.21 1.04 6.61-2.42 13.1-8.48 15.93z" fill="#f9f9f9"/><path d="m511.993 301.863c-5.54-35.03-14.67-66.31-27.34-93.66h-457.07c-33.353 59.029-37.495 128.209-6.26 189.22 3.675-20.234 12.349-38.592 12.44-38.87 7.966-15.919 21.138-33.721 36.01-46.69 29.8-26.01 63.76-31.96 100.94-17.69 3.16 1.26 52.94 20.77 118.03 33.74 89.79 17.89 162.05 14.49 214.77-10.12 6.06-2.83 9.52-9.32 8.48-15.93z" fill="#e7f1f9"/><path d="m503.513 317.793c-54.956 25.663-123.804 24.464-183.49 15.58-4.53-.68-8.51-3.39-10.79-7.36-11.65-20.25-34.95-67.57-32.11-117.81 2.887-51.748 32.347-89.374 77.87-114.05l.16-.08c4.01-2.26 8.84-2.54 13.09-.77 68.895 28.66 125.339 91.96 143.75 208.56 1.04 6.61-2.42 13.1-8.48 15.93z" fill="#93c5ec"/><path d="m503.513 317.793c-54.956 25.663-123.804 24.464-183.49 15.58-4.53-.68-8.51-3.39-10.79-7.36-11.65-20.25-34.95-67.57-32.11-117.81h207.53c12.66 27.37 21.82 58.7 27.34 93.66 1.04 6.61-2.42 13.1-8.48 15.93z" fill="#6aa6fb"/><path d="m415.303 208.203c0 8.085-6.476 15-15.13 15-8.28 0-15-6.72-15-15s6.72-15 15-15c8.64 0 15.13 6.898 15.13 15z" fill="#25429a"/><path d="m415.303 208.203c0 8.085-6.476 15-15.13 15-8.28 0-15-6.72-15-15z" fill="#152659"/></g></svg>