<svg height="512" viewBox="0 0 60 58" width="512" xmlns="http://www.w3.org/2000/svg"><g id="Page-1" fill="none" fill-rule="evenodd"><g id="049---Water-Tanks" fill-rule="nonzero"><path id="Shape" d="m10 53h-5c-2.76005315-.0033061-4.99669388-2.2399468-5-5v-12c.00330612-2.7600532 2.23994685-4.9966939 5-5h5c.5522847 0 1 .4477153 1 1s-.4477153 1-1 1h-5c-1.65685425 0-3 1.3431458-3 3v12c0 1.6568542 1.34314575 3 3 3h5c.5522847 0 1 .4477153 1 1s-.4477153 1-1 1z" fill="#464f5d"/><path id="Shape" d="m55 53h-5c-.5522847 0-1-.4477153-1-1s.4477153-1 1-1h5c1.6568542 0 3-1.3431458 3-3v-12c0-1.6568542-1.3431458-3-3-3h-5c-.5522847 0-1-.4477153-1-1s.4477153-1 1-1h5c2.7600532.0033061 4.9966939 2.2399468 5 5v12c-.0033061 2.7600532-2.2399468 4.9966939-5 5z" fill="#464f5d"/><path id="Shape" d="m46 46 1 8c0 .5522847-.4477153 1-1 1h-32c-.5522847 0-1-.4477153-1-1l1-8c2.67 0 2.67 2 5.33 2s2.67-2 5.33-2 2.67 2 5.33 2 2.67-2 5.34-2 2.66 2 5.33 2 2.67-2 5.34-2z" fill="#2fa8cc"/><path id="Shape" d="m46 26 1 8c0 .5522847-.4477153 1-1 1h-32c-.5522847 0-1-.4477153-1-1l1-8c2.67 0 2.67 2 5.33 2s2.67-2 5.33-2 2.67 2 5.33 2 2.67-2 5.34-2 2.66 2 5.33 2 2.67-2 5.34-2z" fill="#2fa8cc"/><path id="Shape" d="m53 43v2c0 .5522847-.4477153 1-1 1h-2v7c0 2.7614237-2.2385763 5-5 5h-30c-2.7614237 0-5-2.2385763-5-5v-7h-2c-.55228475 0-1-.4477153-1-1v-2c0-.5522847.44771525-1 1-1h3c1.6568542 0 3 1.3431458 3 3v8c0 .5522847.4477153 1 1 1h30c.5522847 0 1-.4477153 1-1v-8c0-1.6568542 1.3431458-3 3-3h3c.5522847 0 1 .4477153 1 1z" fill="#547580"/><path id="Shape" d="m53 23v2c0 .5522847-.4477153 1-1 1h-2v7c0 2.7614237-2.2385763 5-5 5h-30c-2.7614237 0-5-2.2385763-5-5v-7h-2c-.55228475 0-1-.4477153-1-1v-2c0-.5522847.44771525-1 1-1h3c1.6568542 0 3 1.3431458 3 3v8c0 .5522847.4477153 1 1 1h30c.5522847 0 1-.4477153 1-1v-8c0-1.6568542 1.3431458-3 3-3h3c.5522847 0 1 .4477153 1 1z" fill="#547580"/><path id="Shape" d="m39 14c-.0019766 4.5469998-3.3923502 8.3796252-7.9051436 8.9363175-4.5127935.5566923-8.7329304-2.3371105-9.8398564-6.7473175-1.735-7.321 5.875-14.201 8.131-15.977.3634452-.28258413.8728567-.28052006 1.234.005 2.036 1.604 8.38 7.371 8.38 13.783z" fill="#84b5cb"/><path id="Shape" d="m30 20c-3.812 0-5.579-3.8-5.98-5.8-.0917161-.5335055.2577499-1.0431302.7884648-1.1498147s1.0499667.2283102 1.1715352.7558147c.036.171.9 4.2 4.02 4.2.5522847 0 1 .4477153 1 1s-.4477153 1-1 1z" fill="#fff"/></g></g></svg>