<?xml version="1.0" encoding="iso-8859-1"?>
<!-- Generator: Adobe Illustrator 19.0.0, SVG Export Plug-In . SVG Version: 6.00 Build 0)  -->
<svg version="1.1" id="Layer_1" xmlns="http://www.w3.org/2000/svg" xmlns:xlink="http://www.w3.org/1999/xlink" x="0px" y="0px"
	 viewBox="0 0 512 512" style="enable-background:new 0 0 512 512;" xml:space="preserve">
<g>
	<g>
		<path d="M23.319,227.028v89.343c0,10.435,8.46,18.895,18.895,18.895h52.952c10.435,0,18.895-8.46,18.895-18.895
			c0-24.376,19.831-44.206,44.207-44.206s44.206,19.831,44.206,44.206c0,10.435,8.46,18.895,18.895,18.895h69.26
			c10.435,0,18.895-8.46,18.895-18.895c0-24.376,19.83-44.206,44.206-44.206s44.206,19.831,44.206,44.206
			c0,10.435,8.46,18.895,18.895,18.895h52.953c10.435,0,18.895-8.46,18.895-18.895v-89.343H23.319z"/>
	</g>
</g>
<g>
	<g>
		<path d="M493.105,176.734H18.895C8.46,176.734,0,185.194,0,195.629c0,7.892,4.842,14.646,11.715,17.474
			c2.214,0.911,4.637,1.421,7.18,1.421h474.209c2.543,0,4.966-0.51,7.18-1.421c6.873-2.827,11.715-9.582,11.715-17.474
			C512,185.194,503.54,176.734,493.105,176.734z"/>
	</g>
</g>
<g>
</g>
<g>
</g>
<g>
</g>
<g>
</g>
<g>
</g>
<g>
</g>
<g>
</g>
<g>
</g>
<g>
</g>
<g>
</g>
<g>
</g>
<g>
</g>
<g>
</g>
<g>
</g>
<g>
</g>
</svg>
