<?xml version="1.0" encoding="iso-8859-1"?>
<!-- Generator: Adobe Illustrator 19.0.0, SVG Export Plug-In . SVG Version: 6.00 Build 0)  -->
<svg version="1.1" id="Capa_1" xmlns="http://www.w3.org/2000/svg" xmlns:xlink="http://www.w3.org/1999/xlink" x="0px" y="0px"
	 viewBox="0 0 512 512" style="enable-background:new 0 0 512 512;" xml:space="preserve">
<path style="fill:#E4EAF8;" d="M336.963,93.273l-89.78-67.336c-2.019-1.514-3.207-3.89-3.207-6.413v-4.008
	c0-4.427-3.589-8.016-8.016-8.016h-32.065c-4.427,0-8.016,3.589-8.016,8.016v4.008c0,2.523-1.188,4.899-3.207,6.413l-89.78,67.336
	c-2.019,1.514-3.207,3.89-3.207,6.413v4.008h240.484v-4.008C340.169,97.162,338.981,94.786,336.963,93.273z"/>
<g>
	<path style="fill:#D5DCED;" d="M204.429,93.273l14.964-67.336c0.336-1.514,0.534-3.89,0.534-6.413v-4.008
		c0-4.427,0.598-8.016,1.336-8.016h-17.368c-4.427,0-8.016,3.589-8.016,8.016v4.008c0,2.523-1.188,4.899-3.207,6.413l-89.78,67.336
		c-2.019,1.514-3.207,3.89-3.207,6.413v4.008h104.21v-4.008C203.895,97.162,204.093,94.786,204.429,93.273z"/>
	<rect x="91.67" y="103.69" style="fill:#D5DCED;" width="256.52" height="400.81"/>
</g>
<rect x="91.67" y="103.69" style="fill:#C7CFE2;" width="104.21" height="400.81"/>
<path style="fill:#D5DCED;" d="M409.108,221.531l-89.78-67.336c-2.019-1.514-3.207-3.89-3.207-6.413v-4.008
	c0-4.427-3.589-8.016-8.016-8.016H276.04c-4.427,0-8.016,3.589-8.016,8.016v4.008c0,2.523-1.188,4.899-3.207,6.413l-89.78,67.336
	c-2.019,1.514-3.207,3.89-3.207,6.413v4.008h240.484v-4.008C412.315,225.42,411.127,223.045,409.108,221.531z"/>
<g>
	<path style="fill:#C7CFE2;" d="M276.575,221.531l14.964-67.336c0.336-1.514,0.534-3.89,0.534-6.413v-4.008
		c0-4.427,0.598-8.016,1.336-8.016H276.04c-4.427,0-8.016,3.589-8.016,8.016v4.008c0,2.523-1.188,4.899-3.207,6.413l-89.78,67.336
		c-2.019,1.514-3.207,3.89-3.207,6.413v4.008h104.21v-4.008C276.04,225.42,276.238,223.045,276.575,221.531z"/>
	<rect x="163.81" y="231.95" style="fill:#C7CFE2;" width="256.52" height="272.55"/>
</g>
<rect x="163.81" y="231.95" style="fill:#AFB9D2;" width="104.21" height="272.55"/>
<path style="fill:#C7CFE2;" d="M268.024,143.774v4.008c0,2.523-1.188,4.899-3.207,6.413l-7.482,5.611h69.474l-7.482-5.611
	c-2.019-1.514-3.207-3.89-3.207-6.413v-4.008c0-4.427-3.589-8.016-8.016-8.016H276.04
	C271.613,135.758,268.024,139.347,268.024,143.774z"/>
<path style="fill:#AFB9D2;" d="M290.292,159.806l1.247-5.611c0.337-1.514,0.534-3.89,0.534-6.413v-4.008
	c0-4.427,0.599-8.016,1.337-8.016h-17.37c-4.427,0-8.016,3.589-8.016,8.016v4.008c0,2.523-1.188,4.899-3.207,6.413l-7.482,5.611
	H290.292z"/>
<path style="fill:#C7CFE2;" d="M195.879,15.516v4.008c0,2.523-1.188,4.899-3.207,6.413l-7.482,5.611h69.474l-7.482-5.611
	c-2.019-1.514-3.207-3.89-3.207-6.413v-4.008c0-4.427-3.589-8.016-8.016-8.016h-32.065C199.468,7.5,195.879,11.089,195.879,15.516z"
	/>
<path style="fill:#AFB9D2;" d="M218.146,31.548l1.247-5.611c0.337-1.514,0.534-3.89,0.534-6.413v-4.008
	c0-4.427,0.599-8.016,1.337-8.016h-17.369c-4.427,0-8.016,3.589-8.016,8.016v4.008c0,2.523-1.188,4.899-3.207,6.413l-7.482,5.611
	H218.146z"/>
<path d="M444.379,497h-16.548V231.952c0-4.142-3.358-7.5-7.5-7.5h-0.924c-0.822-3.525-2.86-6.717-5.799-8.921l-57.922-43.442
	v-68.396c0-4.142-3.358-7.5-7.5-7.5h-0.924c-0.822-3.525-2.86-6.717-5.799-8.921l-89.781-67.335
	c-0.129-0.097-0.207-0.251-0.207-0.413v-4.008C251.476,6.96,244.515,0,235.959,0h-32.064c-8.556,0-15.516,6.96-15.516,15.516v4.008
	c0,0.161-0.077,0.315-0.207,0.413l-89.78,67.335c-2.939,2.204-4.977,5.396-5.799,8.921h-0.924c-4.142,0-7.5,3.358-7.5,7.5V497
	H67.621c-4.142,0-7.5,3.358-7.5,7.5s3.358,7.5,7.5,7.5h376.758c4.142,0,7.5-3.358,7.5-7.5S448.521,497,444.379,497z
	 M372.232,239.452h40.598V497H251.476V239.452h88.691c4.142,0,7.5-3.358,7.5-7.5s-3.358-7.5-7.5-7.5H183.643l85.675-64.256
	c3.887-2.914,6.207-7.555,6.207-12.413v-4.008c0-0.285,0.231-0.517,0.516-0.517h32.064c0.285,0,0.516,0.231,0.516,0.517v4.008
	c0,4.858,2.32,9.499,6.207,12.413l85.675,64.256h-28.27c-4.142,0-7.5,3.358-7.5,7.5S368.09,239.452,372.232,239.452z
	 M171.314,239.452h17.064V497h-17.064V239.452z M236.476,239.452v17.064h-33.097v-17.064H236.476z M203.379,352.71v-17.064h33.097
	v17.064H203.379z M236.476,367.71v17.064h-33.097V367.71H236.476z M203.379,320.646v-17.065h33.097v17.065H203.379z
	 M203.379,399.774h33.097v17.064h-33.097V399.774z M236.476,288.581h-33.097v-17.064h33.097V288.581z M203.379,431.839h33.097
	v17.064h-33.097V431.839z M203.379,463.903h33.097V497h-33.097V463.903z M99.169,111.193h160.839c4.142,0,7.5-3.357,7.5-7.5
	c0-4.142-3.358-7.5-7.5-7.5H111.497l85.675-64.256c3.886-2.915,6.207-7.555,6.207-12.413v-4.008c0-0.285,0.231-0.516,0.516-0.516
	h32.064c0.285,0,0.516,0.231,0.516,0.516v4.008c0,4.857,2.32,9.498,6.207,12.413l85.676,64.256H292.07c-4.142,0-7.5,3.358-7.5,7.5
	c0,4.143,3.358,7.5,7.5,7.5h48.615v49.646l-16.858-12.644c-0.129-0.097-0.206-0.251-0.206-0.413v-4.008
	c0-8.556-6.96-15.517-15.516-15.517h-32.064c-8.556,0-15.516,6.961-15.516,15.517v4.008c0,0.162-0.077,0.315-0.207,0.413
	l-89.78,67.335c-2.939,2.204-4.978,5.396-5.799,8.921h-0.924c-4.142,0-7.5,3.358-7.5,7.5V497H99.169V111.193z"/>
<path d="M388.266,287.548c4.142,0,7.5-3.358,7.5-7.5v-16.032c0-4.142-3.358-7.5-7.5-7.5s-7.5,3.358-7.5,7.5v16.032
	C380.766,284.19,384.124,287.548,388.266,287.548z"/>
<path d="M388.266,399.774c4.142,0,7.5-3.358,7.5-7.5v-80.162c0-4.142-3.358-7.5-7.5-7.5s-7.5,3.358-7.5,7.5v80.162
	C380.766,396.416,384.124,399.774,388.266,399.774z"/>
<g>
</g>
<g>
</g>
<g>
</g>
<g>
</g>
<g>
</g>
<g>
</g>
<g>
</g>
<g>
</g>
<g>
</g>
<g>
</g>
<g>
</g>
<g>
</g>
<g>
</g>
<g>
</g>
<g>
</g>
</svg>
